<svg xmlns="http://www.w3.org/2000/svg" xmlns:xlink="http://www.w3.org/1999/xlink" version="1.1" width="256" height="256" viewBox="0 0 256 256" xml:space="preserve">

<defs>
</defs>
<g style="stroke: none; stroke-width: 0; stroke-dasharray: none; stroke-linecap: butt; stroke-linejoin: miter; stroke-miterlimit: 10; fill: none; fill-rule: nonzero; opacity: 1;" transform="translate(1.4065934065934016 1.4065934065934016) scale(2.81 2.81)" >
	<path d="M 59.573 78.078 c -2.789 -1.155 -2.789 -5.105 0 -6.26 c 0.396 -0.164 0.584 -0.618 0.42 -1.013 l -1.461 -3.528 c -0.164 -0.396 -0.618 -0.584 -1.013 -0.42 c -2.789 1.155 -5.581 -1.638 -4.426 -4.426 c 0.164 -0.396 -0.024 -0.85 -0.42 -1.013 l -3.528 -1.462 c -0.396 -0.164 -0.85 0.024 -1.013 0.42 c -1.155 2.789 -5.105 2.789 -6.26 0 c -0.164 -0.396 -0.618 -0.584 -1.013 -0.42 l -3.528 1.461 c -0.396 0.164 -0.584 0.618 -0.42 1.013 c 1.155 2.789 -1.638 5.582 -4.427 4.427 c -0.396 -0.164 -0.85 0.024 -1.013 0.42 l -1.461 3.528 c -0.164 0.396 0.024 0.85 0.42 1.013 c 2.789 1.155 2.789 5.105 0 6.26 c -0.396 0.164 -0.584 0.618 -0.42 1.013 l 1.461 3.528 c 0.164 0.396 0.618 0.584 1.013 0.42 c 2.789 -1.155 5.581 1.638 4.426 4.426 c -0.164 0.396 0.024 0.85 0.42 1.013 l 3.528 1.461 c 0.396 0.164 0.85 -0.024 1.013 -0.42 c 1.155 -2.789 5.105 -2.789 6.26 0 c 0.164 0.396 0.618 0.584 1.013 0.42 l 3.528 -1.461 c 0.396 -0.164 0.584 -0.618 0.42 -1.013 c -1.155 -2.789 1.638 -5.581 4.427 -4.426 c 0.396 0.164 0.85 -0.024 1.013 -0.42 l 1.461 -3.528 C 60.156 78.696 59.968 78.243 59.573 78.078 z M 45 80.062 c -2.824 0 -5.114 -2.289 -5.114 -5.114 c 0 -2.824 2.29 -5.114 5.114 -5.114 s 5.114 2.289 5.114 5.114 C 50.114 77.773 47.824 80.062 45 80.062 z" style="stroke: none; stroke-width: 1; stroke-dasharray: none; stroke-linecap: butt; stroke-linejoin: miter; stroke-miterlimit: 10; fill: rgb(0,0,0); fill-rule: nonzero; opacity: 1;" transform=" matrix(1 0 0 1 0 0) " stroke-linecap="round" />
	<path d="M 45 37.368 L 45 37.368 c -8.855 0 -16.034 -7.179 -16.034 -16.034 v -5.3 C 28.966 7.179 36.145 0 45 0 h 0 c 8.855 0 16.034 7.179 16.034 16.034 v 5.3 C 61.034 30.189 53.855 37.368 45 37.368 z" style="stroke: none; stroke-width: 1; stroke-dasharray: none; stroke-linecap: butt; stroke-linejoin: miter; stroke-miterlimit: 10; fill: rgb(0,0,0); fill-rule: nonzero; opacity: 1;" transform=" matrix(1 0 0 1 0 0) " stroke-linecap="round" />
	<path d="M 45 37.368 c -14.007 0 -25.362 11.355 -25.362 25.362 v 9.678 c 0 1.426 1.156 2.581 2.581 2.582 l 7.148 0 c 0.002 -0.017 0.012 -0.02 0.012 -0.041 c 0 -0.167 -0.081 -0.2 -0.153 -0.23 c -1.994 -0.828 -2.944 -3.122 -2.12 -5.114 l 1.462 -3.53 c 0.826 -1.993 3.12 -2.944 5.113 -2.12 c 0.074 0.031 0.156 0.065 0.273 -0.052 c 0.118 -0.118 0.084 -0.199 0.054 -0.272 c -0.825 -1.99 0.123 -4.285 2.114 -5.113 l 3.534 -1.462 c 0.962 -0.4 2.025 -0.401 2.992 -0.002 c 0.967 0.4 1.721 1.152 2.122 2.119 c 0.031 0.074 0.064 0.155 0.23 0.155 c 0.166 0 0.199 -0.082 0.229 -0.153 c 0.4 -0.966 1.152 -1.72 2.12 -2.12 c 0.968 -0.401 2.034 -0.4 3 0.003 l 3.524 1.459 c 0.966 0.399 1.72 1.152 2.12 2.12 c 0.401 0.968 0.4 2.033 -0.003 3 c -0.028 0.067 -0.061 0.149 0.056 0.267 c 0.119 0.118 0.2 0.084 0.269 0.053 c 2.006 -0.825 4.295 0.129 5.118 2.121 l 1.46 3.526 c 0.824 1.994 -0.125 4.286 -2.114 5.114 c -0.077 0.032 -0.157 0.065 -0.157 0.232 c 0 0.021 0.01 0.025 0.013 0.042 l 7.147 0 c 1.426 0 2.582 -1.156 2.582 -2.582 v -9.68 C 70.362 48.723 59.007 37.368 45 37.368 z" style="stroke: none; stroke-width: 1; stroke-dasharray: none; stroke-linecap: butt; stroke-linejoin: miter; stroke-miterlimit: 10; fill: rgb(0,0,0); fill-rule: nonzero; opacity: 1;" transform=" matrix(1 0 0 1 0 0) " stroke-linecap="round" />
</g>
</svg>