<?xml version="1.0" encoding="UTF-8"?>
<svg xmlns="http://www.w3.org/2000/svg" xmlns:xlink="http://www.w3.org/1999/xlink" width="17px" height="16px" viewBox="0 0 16 16" version="1.1">
<g id="surface1">
<path style=" stroke:none;fill-rule:nonzero;fill:rgb(100%,75.686275%,2.745098%);fill-opacity:1;" d="M 7.363281 2.054688 C 6.949219 3.046875 6.441406 4.257812 6.238281 4.742188 C 6.039062 5.226562 5.871094 5.625 5.867188 5.628906 C 5.867188 5.632812 5.484375 5.660156 5.015625 5.699219 C 4.550781 5.734375 3.699219 5.796875 3.125 5.839844 C 2.550781 5.886719 1.765625 5.945312 1.382812 5.972656 C 0.996094 6.003906 0.648438 6.03125 0.613281 6.035156 L 0.546875 6.042969 L 0.605469 6.105469 C 0.640625 6.136719 1.027344 6.5 1.460938 6.90625 C 1.898438 7.316406 2.46875 7.851562 2.730469 8.097656 C 4.316406 9.585938 4.679688 9.929688 4.695312 9.941406 C 4.71875 9.957031 4.789062 9.640625 4.019531 12.921875 C 3.699219 14.285156 3.4375 15.402344 3.441406 15.40625 C 3.441406 15.414062 4.527344 14.75 5.851562 13.9375 C 7.171875 13.125 8.265625 12.460938 8.273438 12.464844 C 8.285156 12.46875 8.773438 12.78125 9.355469 13.164062 C 9.941406 13.546875 10.8125 14.117188 11.292969 14.429688 C 11.773438 14.746094 12.308594 15.09375 12.476562 15.207031 C 12.644531 15.316406 12.789062 15.40625 12.792969 15.40625 C 12.796875 15.40625 12.796875 15.386719 12.792969 15.359375 C 12.785156 15.3125 12.28125 12.863281 11.824219 10.664062 C 11.714844 10.132812 11.625 9.691406 11.625 9.679688 C 11.625 9.664062 12.4375 8.941406 15.371094 6.335938 C 15.695312 6.050781 15.699219 6.046875 15.660156 6.035156 C 15.636719 6.03125 14.394531 5.898438 12.898438 5.742188 C 11.40625 5.585938 10.171875 5.453125 10.15625 5.449219 C 10.136719 5.441406 10.078125 5.300781 9.90625 4.859375 C 9.785156 4.542969 9.390625 3.527344 9.035156 2.605469 C 8.679688 1.683594 8.328125 0.777344 8.261719 0.597656 C 8.191406 0.417969 8.128906 0.265625 8.125 0.257812 C 8.121094 0.253906 7.777344 1.0625 7.363281 2.054688 Z M 7.363281 2.054688 "/>
</g>
</svg>
